<?xml version="1.0" encoding="utf-8"?>
<!-- Generator: Adobe Illustrator 22.0.0, SVG Export Plug-In . SVG Version: 6.00 Build 0)  -->
<svg version="1.1" id="Слой_1" xmlns="http://www.w3.org/2000/svg" xmlns:xlink="http://www.w3.org/1999/xlink" x="0px" y="0px"
	 viewBox="0 0 442.8 649.2" style="enable-background:new 0 0 442.8 649.2;" xml:space="preserve">
<style type="text/css">
	.st0{fill:#FEFEFE;}
	.st1{fill:#A3F6BE;}
	.st2{fill:#2BA19C;}
	.st3{fill:#6F848B;}
	.st4{fill:#697E84;}
	.st5{fill:#435055;}
	.st6{fill:#ED715A;}
	.st7{fill:#F08C79;}
	.st8{fill:#EFFDF4;}
	.st9{fill:#EEFDF3;}
	.st10{fill:#679C79;}
	.st11{fill:#A2F6BE;}
	.st12{fill:#D6FBE2;}
	.st13{fill:#DAFBE5;}
	.st14{fill:#CCFADC;}
	.st15{fill:#DBFBE6;}
	.st16{fill:#C0F9D3;}
	.st17{fill:#B8F8CD;}
	.st18{fill:#DEFBE8;}
	.st19{fill:#C6F9D7;}
	.st20{fill:#BDF8D1;}
	.st21{fill:#DFFBE8;}
</style>
<path class="st0" d="M222.6,621"/>
<g>
	<path class="st1" d="M7.6,558.1c0-1.3-0.8-2.1-2.1-2.1H1.4v-10.5h12.1c4.5,0,6.4,2,6.4,6.4v22h29.6v-22c0-4.4,2-6.4,6.4-6.4h12.1
		V556H64c-1.3,0-2.1,0.8-2.1,2.1v54.6H49.6v-28.2H20v28.2H7.6V558.1z"/>
	<path class="st1" d="M79.8,556h-6.1v-10.5h40.6c4.5,0,6.4,2,6.4,6.4v10.2h-11.2v-4.1c0-1.3-0.8-2.1-2.1-2.1H92.2v17.6h21.9v10.5
		H92.2v16c0,1.3,0.8,2.1,2.1,2.1h15.6c1.3,0,2.1-0.8,2.1-2.1V596h11.2v10.2c0,4.5-1.9,6.4-6.4,6.4H86.3c-4.4,0-6.4-1.9-6.4-6.4V556z
		"/>
	<path class="st1" d="M147.7,578.6l-12.6-20.3c-1.2-2-2-2.3-4-2.3h-2.8v-10.5h7.7c4.5,0,6.4,0.9,8.7,4.9l6.4,11.2
		c2.2,3.9,4.2,8.1,4.2,8.1h0.2c0,0,1.9-4.3,4.2-8.1l6.5-11.2c2.3-4,4.1-4.9,8.6-4.9h7.7V556h-2.8c-2,0-2.6,0.3-4,2.3L163,578.6
		l20.8,34.1H170l-10.5-17.7c-2.2-4-4.2-7.9-4.2-7.9h-0.2c0,0-1.9,4-4.1,7.9l-10.4,17.7h-13.8L147.7,578.6z"/>
	<path class="st1" d="M185.6,602.1h1.6c1.6,0,2.3-0.4,2.8-2.1l20-54.6h13l19.9,54.6c0.7,1.7,1.3,2.1,2.9,2.1h1.5v10.5h-7.4
		c-4.7,0-6.4-1.2-7.9-5.5l-4.3-11.7h-22.6l-4.3,11.7c-1.4,4.3-3.1,5.5-7.9,5.5h-7.5V602.1z M225,585.2l-5.8-16.8
		c-1.2-3.7-2.7-10-2.7-10h-0.2c0,0-1.4,6.3-2.6,10l-5.7,16.8H225z"/>
	<path class="st1" d="M256.7,556h-6.1v-10.5h30.7c12.6,0,21.4,8.8,21.4,21.8c0,13.1-8.8,22.1-21.4,22.1h-12.2v23.2h-12.4V556z
		 M279,578.9c7,0,11-4.5,11-11.5c0-6.9-4-11.4-10.8-11.4h-10.1v22.9H279z"/>
	<path class="st1" d="M341.9,544.3c19.8,0,34.7,15,34.7,34.2c0,19.8-14.9,35.2-34.7,35.2s-34.7-15.4-34.7-35.2
		C307.2,559.4,322.2,544.3,341.9,544.3z M341.9,602.2c12.1,0,21.8-10.2,21.8-23.6c0-12.9-9.7-22.7-21.8-22.7s-21.9,9.8-21.9,22.7
		C320.1,592,329.8,602.2,341.9,602.2z"/>
	<path class="st1" d="M388.4,556h-6.1v-10.5h27.3c20.7,0,34.2,12.3,34.2,33.5c0,21.2-13.5,33.7-34.2,33.7h-14.8
		c-4.4,0-6.4-1.9-6.4-6.4V556z M402.9,602.1h6.1c13.4,0,22-8,22-23.2c0-14.9-8.8-23-22-23h-8.1V600
		C400.8,601.4,401.5,602.1,402.9,602.1z"/>
</g>
<g>
	<g>
		<path class="st2" d="M154.3,638h0.2v-0.2c0-1.1-0.5-1.6-1.5-1.6c-0.5,0-1.1,0.1-1.1,0.6v0.5h-3.7V636c0-2.7,3.4-2.8,4.7-2.8
			c4.4,0,5.7,2.1,5.7,4.9v3.5c0,0.3,0.2,0.5,0.5,0.5h0.9v3.4h-3.5c-1.2,0-1.6-0.7-1.6-1.3v-0.2h0c0,0-1,1.8-3.5,1.8
			c-2.3,0-4-1.5-4-3.7C147.3,638.3,152.4,638,154.3,638z M152.4,642.8c1.1,0,2.1-1.1,2.1-2.1v-0.3H154c-1.3,0-2.8,0.4-2.8,1.4
			C151.3,642.3,151.7,642.8,152.4,642.8z"/>
		<path class="st2" d="M162,636.6h-1.5v-3.2h1.7v-3.3h3.9v3.3h2.5v3.2h-2.5v3.9c0,1.4,1.4,1.5,2.2,1.5c0.3,0,0.5,0,0.5,0v3.5
			c0,0-0.4,0.1-1.1,0.1c-1.9,0-5.6-0.5-5.6-4.6V636.6z"/>
		<path class="st2" d="M171.4,636.6h-1.5v-3.2h1.7v-3.3h3.9v3.3h2.5v3.2h-2.5v3.9c0,1.4,1.4,1.5,2.2,1.5c0.3,0,0.5,0,0.5,0v3.5
			c0,0-0.4,0.1-1.1,0.1c-1.9,0-5.6-0.5-5.6-4.6V636.6z"/>
		<path class="st2" d="M180,632.7c0-0.3-0.2-0.5-0.5-0.5h-0.9v-3.4h3.7c1.2,0,1.7,0.5,1.7,1.7v11.1c0,0.3,0.2,0.5,0.5,0.5h0.9v3.4
			h-3.7c-1.2,0-1.7-0.5-1.7-1.7V632.7z"/>
		<path class="st2" d="M192.7,633.2c3.6,0,5.6,2.5,5.6,5.8c0,0.4,0,0.8-0.1,1.3h-7.6c0.3,1.5,1.5,2.2,2.8,2.2c1.2,0,2.3-0.6,3.3-1.2
			l1.5,2.8c-1.3,1.1-3.3,1.8-5.2,1.8c-4.3,0-6.6-3.1-6.6-6.3C186.4,635.9,188.8,633.2,192.7,633.2z M194.2,638c0-1-0.6-1.8-1.7-1.8
			c-1.2,0-1.7,0.8-1.9,1.8H194.2z"/>
		<path class="st2" d="M212.3,633.2c3.8,0,6.8,2.6,6.8,6.3c0,3.8-3,6.3-6.8,6.3c-3.8,0-6.8-2.5-6.8-6.3
			C205.5,635.7,208.5,633.2,212.3,633.2z M212.3,642.4c1.5,0,2.7-1.1,2.7-2.9c0-1.8-1.3-3-2.7-3s-2.7,1.1-2.7,3
			C209.6,641.3,210.8,642.4,212.3,642.4z"/>
		<path class="st2" d="M221.5,636.6H220v-3.2h1.5v-0.3c0-4,3.6-4.5,5.5-4.5c0.7,0,1.2,0.1,1.2,0.1v3.4c0,0-0.3,0-0.7,0
			c-0.8,0-2,0.1-2,1.2v0.2h2.2v3.2h-2.2v8.9h-4.1V636.6z"/>
		<path class="st2" d="M235.1,642h1.8v-9.7h-1.8v-3.5h7.5v3.5h-1.8v9.7h1.8v3.5h-7.5V642z"/>
		<path class="st2" d="M245.1,637.4c0-0.3-0.2-0.5-0.5-0.5h-0.9v-3.4h3.6c1.1,0,1.7,0.5,1.7,1.4v0.2c0,0.1,0,0.3,0,0.3h0
			c0.6-0.9,1.7-2.1,3.8-2.1c2.4,0,4.3,1.1,4.3,4.5v3.9c0,0.3,0.2,0.5,0.5,0.5h0.9v3.4h-3.7c-1.2,0-1.7-0.5-1.7-1.7v-5.4
			c0-1.1-0.4-1.6-1.3-1.6c-1.3,0-2,0.7-2.4,1.7c-0.2,0.5-0.2,1-0.2,1.6v5.3h-4.1V637.4z"/>
		<path class="st2" d="M261.2,641c0,0,1.7,1.7,3.5,1.7c0.6,0,0.9-0.2,0.9-0.6c0-1-6-1.3-6-5.2c0-2.6,2.4-3.7,5-3.7
			c2,0,4.7,0.6,4.7,2.7v1.4h-3.5v-0.6c0-0.3-0.5-0.6-1.1-0.6c-0.6,0-1.1,0.2-1.1,0.6c0,1.2,6.1,1.1,6.1,5.1c0,2.4-2.1,3.9-4.9,3.9
			c-3.5,0-5.3-2.2-5.3-2.2L261.2,641z"/>
		<path class="st2" d="M277.1,633.2c3.6,0,5.6,2.5,5.6,5.8c0,0.4,0,0.8-0.1,1.3H275c0.3,1.5,1.5,2.2,2.8,2.2c1.2,0,2.3-0.6,3.3-1.2
			l1.5,2.8c-1.3,1.1-3.3,1.8-5.2,1.8c-4.3,0-6.6-3.1-6.6-6.3C270.8,635.9,273.2,633.2,277.1,633.2z M278.7,638c0-1-0.6-1.8-1.7-1.8
			c-1.2,0-1.7,0.8-1.9,1.8H278.7z"/>
		<path class="st2" d="M290.7,633.2c1.7,0,4.5,0.7,4.5,2.8v1.7h-3.5V637c0-0.4-0.4-0.5-0.9-0.5c-1.7,0-2.7,1.3-2.7,2.9
			c0,2.1,1.5,2.9,3,2.9c1.7,0,3.3-1.6,3.3-1.6l1.6,2.7c0,0-1.9,2.3-5.3,2.3c-4.3,0-6.7-3-6.7-6.3
			C283.8,636.3,286.1,633.2,290.7,633.2z"/>
		<path class="st2" d="M298,636.6h-1.5v-3.2h1.7v-3.3h3.9v3.3h2.5v3.2H302v3.9c0,1.4,1.4,1.5,2.2,1.5c0.3,0,0.5,0,0.5,0v3.5
			c0,0-0.4,0.1-1.1,0.1c-1.9,0-5.6-0.5-5.6-4.6V636.6z"/>
		<path class="st2" d="M307.8,641c0,0,1.7,1.7,3.5,1.7c0.6,0,0.9-0.2,0.9-0.6c0-1-6-1.3-6-5.2c0-2.6,2.4-3.7,5-3.7
			c2,0,4.7,0.6,4.7,2.7v1.4h-3.5v-0.6c0-0.3-0.5-0.6-1.1-0.6c-0.6,0-1.1,0.2-1.1,0.6c0,1.2,6.1,1.1,6.1,5.1c0,2.4-2.1,3.9-4.9,3.9
			c-3.5,0-5.3-2.2-5.3-2.2L307.8,641z"/>
	</g>
	<g>
		<path class="st2" d="M145.3,638c-0.5-0.7-1.4-1.2-2.5-1.5c1.4-0.7,2-1.9,1.9-3.6c-0.1-0.6-0.2-1.2-0.5-1.6
			c-0.3-0.5-0.7-0.8-1.2-1.1c-0.5-0.3-1-0.5-1.6-0.6c-0.6-0.1-1.2-0.3-2-0.3v-3.6h-2.2v3.5c-0.4,0-1,0-1.7,0v-3.5h-2.2v3.6
			c-0.3,0-0.8,0-1.4,0l-3,0v2.3h1.6c0.7,0,1.1,0.3,1.3,1v4.1c0.1,0,0.2,0,0.2,0h-0.2v5.7c-0.1,0.5-0.3,0.7-0.8,0.7h-1.6l-0.4,2.6
			h2.8c0.2,0,0.4,0,0.8,0c0.3,0,0.6,0,0.8,0v3.6h2.2v-3.6c0.4,0,1,0,1.7,0v3.5h2.2v-3.6c0.8,0,1.5-0.1,2.1-0.2
			c0.6-0.1,1.2-0.3,1.7-0.5c0.5-0.2,1-0.5,1.4-0.8c0.4-0.3,0.7-0.7,0.9-1.3c0.2-0.5,0.4-1.1,0.5-1.8
			C146.1,639.7,145.9,638.7,145.3,638z M135.6,631.7c0.1,0,0.3,0,0.6,0c0.3,0,0.6,0,0.8,0c0.2,0,0.5,0,0.8,0c0.3,0,0.6,0.1,0.9,0.1
			c0.2,0,0.5,0.1,0.8,0.2c0.3,0.1,0.5,0.2,0.7,0.4c0.2,0.2,0.3,0.4,0.4,0.6c0.1,0.2,0.2,0.5,0.2,0.8c0,0.3,0,0.5-0.1,0.7
			c-0.1,0.2-0.2,0.4-0.4,0.5c-0.2,0.1-0.3,0.3-0.5,0.4c-0.2,0.1-0.4,0.2-0.7,0.3c-0.3,0.1-0.5,0.1-0.7,0.2c-0.2,0-0.5,0.1-0.8,0.1
			c-0.3,0-0.5,0-0.7,0c-0.2,0-0.4,0-0.7,0c-0.3,0-0.4,0-0.5,0L135.6,631.7L135.6,631.7L135.6,631.7z M141.5,641.3
			c-0.1,0.2-0.2,0.4-0.3,0.6c-0.1,0.2-0.3,0.3-0.6,0.4c-0.2,0.1-0.5,0.2-0.7,0.3c-0.2,0.1-0.5,0.1-0.8,0.2c-0.3,0.1-0.6,0.1-0.8,0.1
			c-0.2,0-0.5,0-0.8,0.1c-0.3,0-0.6,0-0.7,0c-0.2,0-0.4,0-0.7,0c-0.3,0-0.4,0-0.5,0v-4.8c0.1,0,0.3,0,0.7,0c0.4,0,0.7,0,0.9,0
			c0.2,0,0.6,0,1,0c0.4,0,0.8,0.1,1,0.1c0.3,0.1,0.6,0.1,0.9,0.3c0.3,0.1,0.6,0.3,0.8,0.4c0.2,0.2,0.4,0.4,0.5,0.7
			c0.1,0.3,0.2,0.6,0.2,0.9C141.7,640.8,141.6,641.1,141.5,641.3z"/>
	</g>
</g>
<g>
	<path class="st3" d="M307.5,409.4c3.4,6.5,6.5,12.5,9.6,18.6c0.8,1.5,0.1,2.9-0.3,4.3c-4.6,14.6-9.3,29.2-13.8,43.8
		c-0.9,2.9-2,3.6-4.9,2.6c-9.6-3.3-19.3-6.4-29-9.4c-2.9-0.9-4.1-1.4-4.1-1.4l6.7-7.8c0,0,3.6,1.2,6.1,2.1c4.9,2,10.1,3.2,15.2,5
		c2,0.7,3,0.3,3.6-1.8c3.5-11.1,7.1-22.2,10.7-33.3c0.9-2.8-0.8-5-2.2-6.9c-1.7-2.3-3.9-5.6-3.9-5.6L307.5,409.4z"/>
	<path class="st3" d="M177.1,468.9c-10.5,3.4-21.4,6.8-31.8,10.2c-2.2,0.7-2.5-0.7-3-2.2c-4.8-15.2-9.6-30.4-14.5-45.6
		c-0.4-1.1-0.5-2.3,0.1-3.4c2.3-4.4,5-9.7,7.4-14.3l5.8,8.5c0,0-1.6,3.2-2.9,6.2c-0.6,1.5-0.8,2.8-0.3,4.3
		c3.5,10.9,7.1,21.8,10.5,32.7c0.8,2.6,2,2.5,4,1.7c3.6-1.3,7.3-2.4,10.9-3.5c3.9-1.2,7.2-2.1,7.2-2.1L177.1,468.9z"/>
	<path class="st4" d="M383.6,163.6c-2.3-2.2-5.3-2.6-8.1-3.7c-49.5-19.3-99-38.5-148.5-57.7c-3.7-1.4-6.9-1.3-10.6,0.1
		c-27.7,10.9-55.5,21.7-83.3,32.5c-22.8,8.9-45.6,17.8-68.4,26.7c-4.6,1.8-7.1,5-6.5,9.9c1.9,17.4,4.4,34.7,7.9,51.8
		c8.3,41.1,20.1,81.1,37.1,119.5c17.3,39.2,37.5,76.6,65,109.6c13.8,16.6,29,31.7,48.2,42.2c3.9,2.1,7.2,2.3,11.1,0
		c15.1-8.8,27.2-20.9,38.3-34c31.1-36.8,53-79,71.8-122.9c19.1-44.5,32.5-90.8,42.9-138.1c2.1-9.8,4.1-19.6,6.1-29.3
		C386.9,167.4,385.6,165.4,383.6,163.6z M372,175.8c-3,15.7-6.6,31.3-10.4,46.8c-12.8,51.2-29.9,100.8-54,147.9
		c-17.2,33.6-36.4,65.9-63.1,93c-5.6,5.7-11.8,10.7-18.2,15.5c-3.1,2.3-5.4,2.1-8.5,0.1c-16.6-10.9-30.4-24.9-42.5-40.5
		C139,392.4,114.1,340.1,96,284.4c-10.6-32.7-17.8-66.2-22.5-100.2c-0.3-2.1-0.5-4.3-0.8-7.3c-1.4-3.7,1.1-5.1,4.9-6.6
		c46.7-18.1,93.3-36.4,140-54.7c3.1-1.2,5.9-1.2,9.1,0c43.6,17,87.2,33.9,130.8,50.9c3.9,1.5,7.7,3.3,11.6,4.5
		C371.9,171.8,372.5,172.9,372,175.8z"/>
	<path class="st3" d="M388,20.3c-9.5-5.1-19.1-10.1-28.8-14.9c-5.9-2.9-13.6-1-17.1,3.9c-3.4,4.6-2.8,12.2,1.9,17
		c2,2,2.2,3.4,0.9,5.9c-9,17.2-17.9,34.6-26.8,51.9c-1.3,2.5-2.3,3.6-5.6,2.6c-14.1-4.2-28.6,1.6-36,13.6c-2.3,3.7-2.3,6,2,7.5
		c3.4,1.2,3.8,3,1.8,5.9c-0.7,1.1-1.8,3.8-1.8,3.8l8.6,3.3c0,0,1.2-2.4,1.7-3.6c1.2-2.6,2.3-2.9,4.8-1.6c11,5.9,21.9,12,33.2,17.2
		c4.2,2,6.1,6.8,10.7,7.6c6,1,11.2,4.1,16.6,6.5c2.9,1.3,4,0.7,5.3-2c6.1-12.9,2.4-29.7-9.1-38.2c-3.1-2.3-2.9-3.8-1.3-6.7
		c9-17.1,17.8-34.3,26.6-51.5c1.2-2.4,2.5-4.5,5.3-3.2c8,0.2,13.2-3.2,15-9.5C397.1,30.3,393.9,23.4,388,20.3z M325.2,90.1
		c3.6-6.9,7.1-13.8,11.3-21.7c2.4,7.6,4.6,13.8,6.3,20.1c1.1,4.1-2.3,7-3.9,10.3c-0.5,1-1.5,0.4-2.2,0.1c-3.5-1.8-7-3.7-10.5-5.6
		C324.7,92.5,324.4,91.6,325.2,90.1z M353.4,132.1c-0.3,2.8-1,3.9-4,2.3c-19.8-10.5-39.7-20.9-59.6-31.2c-3-1.6-2.5-2.9-0.3-4.6
		c3.8-2.9,8-4.8,12.9-4.7c4.7-0.1,8.8,1.8,12.7,3.9c9.1,4.8,18.2,9.7,27.3,14.5C349.9,116.4,354.3,124.3,353.4,132.1z M349.6,77.8
		c-3.5-6.4-3.5-13.7-7.6-19.5c-0.5-0.7,1.3-3.2,2.2-4.8c1.2-2.5,2.5-4.9,4.3-8.4c1.9,5.9,3,10.7,5,14.9
		C356.9,67.1,353.1,72.1,349.6,77.8z M367.9,42.9c-2,3.6-3.8,7.3-6,11.5c-3.9-6.6-3.6-13.9-7.8-19.4c-0.8-1.1,0.8-2.3,2.5-1.4
		c3.5,1.9,7,3.7,10.6,5.6C369,40.2,368.7,41.4,367.9,42.9z M381.5,35.9c-10.3-5.2-20.4-10.5-30.6-15.8c-2.1-1.1-2.9-2.7-1.8-4.9
		c1.1-2,2.8-3,5-1.9c10.4,5.3,20.7,10.7,31.1,16.1c1.1,0.6,1.6,1.6,1.6,2.9C386.9,35.3,384.3,37.3,381.5,35.9z"/>
	<path class="st3" d="M169.1,100.9c-7-12.2-21.6-18.5-35.6-14.5c-3.9,1.1-5.2,0.1-6.8-3c-8.6-16.9-17.3-33.8-26.2-50.5
		c-1.5-2.9-1.6-4.7,1-7.2c4.5-4.4,4.8-12,1.4-16.5c-3.6-4.7-11.2-6.6-16.7-3.9c-10,5-19.9,10.1-29.7,15.4c-5.6,3-8.4,9.9-6.9,15.8
		c1.4,5.4,6.8,8.9,14,8.8c2.2-0.5,4.2-0.4,5.7,2.6c8.8,17.5,17.9,35,27,52.4c1.5,2.9,1.3,4.3-1.4,6.4c-11.4,8.6-15.1,24.1-9.6,37.3
		c1.3,3.2,2.6,4.8,6.1,2.5c7.1-4.7,15.8-5.7,23.1-10.9c10.7-7.7,23.3-12.7,35.1-19c3.1-1.7,5.3-3.1,7.5,1.7c0.4,0.8,1,2,1,2l8.7-3.4
		c0,0-0.9-1.9-1.7-3c-2.7-3.5-1.1-5.4,2.3-6.6C171,105.9,170.9,104,169.1,100.9z M119.7,89.9c0.9,1.8,0.6,2.7-1.1,3.5
		c-1.8,0.8-3.5,2.2-5.3,2.7c-2.5,0.7-5,4.9-7.2,2.2c-2.5-3-5.4-6.7-3.4-11.8c2.2-5.5,3.7-11.3,5.9-18.3
		C112.7,76.3,116.1,83.2,119.7,89.9z M62.9,36.2c-0.3,0.2-0.6,0.2-0.9,0.3c-2,0-2.9-1.3-3.6-2.9c-0.7-1.8-0.3-3.4,1.4-4.3
		c10.4-5.5,20.9-10.9,31.4-16.2c1.9-1,3.5,0,4.5,1.8c1,1.8,1,3.7-1,4.7C84.2,25.3,73.5,30.7,62.9,36.2z M77.3,43.3
		c-1.1-2-1-3.3,1.2-4.4c3.3-1.6,6.5-3.4,9.7-5.1c0.7-0.4,1.5-0.9,2.2-0.2c0.4,0.4,0.8,1.5,0.6,1.7c-4.5,5.4-4.2,12.7-7.8,19.5
		C81.1,50.6,79.2,46.9,77.3,43.3z M95.5,77.5c-5.3-6.1-6.8-12.5-3.2-19.8c1.7-3.5,2.6-7.5,4-11.8c3.2,3.6,4.7,7.8,6.5,11.7
		c0.5,1.3-1.6,3.6-2.3,5.5C98.8,67.9,97.8,72.9,95.5,77.5z M155,103.3c-19.8,10.2-39.5,20.7-59.3,30.9c-6.3,3.3-2.8-2.9-4.1-3.8
		c0.2-8.1,3.7-13.9,10-17.5c10.4-5.9,21-11.5,31.7-16.8c7.7-3.8,15.2-3,22.1,2.3C157.9,100.3,158.2,101.7,155,103.3z"/>
	<path class="st5" d="M161.7,320.4c11.8-7.4,106.6-7.5,119.7-0.1c-3.3,3-7.4,2.9-11.2,3.2c-33.9,3.1-67.8,3.6-101.7-0.7
		C166.2,322.6,163.6,322.4,161.7,320.4z"/>
	<path class="st6" d="M225.7,387.9c-1.3,2.6-3.5,2.4-5.4,1.3c-2.1-1.2-2.5-3.5-1.5-5.7c0.9-2.1,2.1-4,3.2-6.1
		c1.8,0.5,1.7,2.3,2.5,3.4C225.6,383.1,224.6,385.7,225.7,387.9z"/>
	<path class="st7" d="M225.7,387.9c-3.9-1.7-1.3-4.6-1.2-7C226.3,383,227.9,385.2,225.7,387.9z"/>
	<path class="st8" d="M166.6,296.9c1.1,0.9,1.1,2,0.6,3.1c-0.1,0.2-1.1,0.3-1.1,0.2c-0.2-0.8-0.4-1.5-0.5-2.3
		C166,297.5,166,296.9,166.6,296.9z"/>
	<path class="st9" d="M278.5,297.9c0.3,0.3,0.7,0.7,1,1c-0.1,0.8-0.3,2-1.3,1.4C277.1,299.7,277.7,298.6,278.5,297.9z"/>
	<g>
		<path class="st10" d="M244.9,429.6c-1.5-1.9-3.7-3.3-6.8-4c3.8-2,5.5-5.3,5.1-10c-0.2-1.7-0.6-3.2-1.4-4.4c-0.8-1.2-1.8-2.3-3.2-3
			c-1.3-0.8-2.8-1.3-4.4-1.7c-1.6-0.4-3.4-0.7-5.4-0.9v-9.7h-5.9v9.5c-1,0-2.6,0-4.7,0.1v-9.5h-5.9v9.7c-0.8,0-2.1,0-3.7,0l-8.2,0
			v6.3h4.3c2,0,3.1,0.9,3.4,2.6v11.1c0.3,0,0.5,0,0.6,0H208v15.5c-0.2,1.3-1,2-2.2,2h-4.3l-1.2,7.1h7.7c0.5,0,1.2,0,2.1,0
			c0.9,0,1.6,0,2.1,0v9.8h5.9v-9.7c1.1,0,2.6,0,4.7,0v9.7h5.9v-9.8c2.1-0.1,4-0.3,5.6-0.6c1.6-0.3,3.2-0.7,4.7-1.3
			c1.5-0.6,2.7-1.4,3.7-2.3c1-0.9,1.8-2,2.5-3.4c0.7-1.4,1.1-3,1.3-4.8C246.9,434.3,246.4,431.5,244.9,429.6z M218.3,412.4
			c0.2,0,0.7,0,1.5,0c0.8,0,1.5,0,2.1,0c0.6,0,1.3,0,2.2,0.1c0.9,0.1,1.7,0.2,2.4,0.3s1.4,0.3,2.1,0.6c0.8,0.3,1.4,0.7,1.9,1.1
			c0.5,0.4,0.9,1,1.2,1.6c0.3,0.7,0.5,1.4,0.5,2.3c0,0.7-0.1,1.4-0.3,2c-0.2,0.6-0.6,1.1-1,1.5c-0.5,0.4-0.9,0.7-1.4,1
			c-0.5,0.3-1.1,0.5-1.9,0.7c-0.8,0.2-1.4,0.3-2,0.4c-0.6,0.1-1.3,0.2-2.1,0.2c-0.8,0-1.5,0.1-1.9,0.1c-0.4,0-1,0-1.8,0
			c-0.8,0-1.2,0-1.3,0L218.3,412.4L218.3,412.4L218.3,412.4z M234.5,438.7c-0.2,0.6-0.6,1.1-0.9,1.5c-0.4,0.4-0.9,0.8-1.5,1.2
			c-0.6,0.3-1.2,0.6-1.8,0.8c-0.6,0.2-1.3,0.4-2.1,0.5c-0.8,0.2-1.6,0.3-2.2,0.3c-0.6,0.1-1.4,0.1-2.3,0.2c-0.9,0-1.6,0.1-2,0.1
			c-0.5,0-1.1,0-1.9,0c-0.7,0-1.2,0-1.4,0v-13c0.2,0,0.8,0,1.8,0c1,0,1.8,0,2.5,0c0.6,0,1.5,0,2.7,0.1c1.1,0.1,2.1,0.2,2.9,0.3
			c0.8,0.2,1.6,0.4,2.5,0.7c0.9,0.3,1.7,0.7,2.2,1.2c0.6,0.5,1,1.1,1.4,1.8c0.4,0.7,0.6,1.5,0.6,2.5
			C234.9,437.4,234.8,438.1,234.5,438.7z"/>
	</g>
	<path class="st11" d="M333.9,206.1c-0.6,4.2-1.6,8.2-5.2,10.9c-2.3,1.8-4.9,3.1-7.6,4.1c-5.3,2-10.9,3.3-16.5,4.2
		c-4.1,0.7-8.3,1.2-12.4,1.7c-2.3,0.3-4.6,0.4-6.9,0.6c-5.8,0.4-11.7,0.7-17.5,0.7c-0.5,0-0.7,0.2-0.6,0.7c0.1,1.3,0.7,2.3,1.7,3.1
		c0.5,0.4,1,0.7,1.6,1c4.9,2.6,9.9,5,14.9,7.4c0.6,0.3,0.8,0.6,1,1.2c0.2,0.9,0.5,1.8,0.6,2.7c0.1,0.6,0.4,0.9,1,1.1
		c3,1.2,6.1,2.4,8.8,4.3c0.9,0.6,1.6,1.4,2.3,2.2c1.3,1.6,1.1,3.2,0.2,4.9c-0.7,1.2-1.5,2.4-2.2,3.5c-3.3,5-6.4,10.1-9,15.4
		c-3.3,6.8-5.8,14-7.9,21.3c-0.1,0.4-0.2,0.8-0.4,1.3c-0.5-0.1-0.2-0.4-0.2-0.7c0.2-2.4,0.7-4.8,1.1-7.2c0.8-4.6,1.8-9.2,3.1-13.8
		c1.3-4.7,3-9.3,5-13.8c0.5-1.1,1-2.2,1.5-3.3c0.9-1.9-0.5-4.3-2.6-4.5c-1.6-0.2-3.2-0.3-4.9,0c-0.7,0.1-1.1,0.3-1.4,1
		c-3.8,8.5-7.1,17.3-10,26.2c-0.5,1.6-1,3.1-1.6,4.7c0.1-1.6,0.2-3.3,0.4-4.9c0.4-3.4,0.8-6.8,1.5-10.1c1.2-5.9,3.1-11.5,5.3-17
		c0.3-0.7,0.2-1.1-0.3-1.6c-2.8-2.6-6-3.3-9.7-2.5c-0.4,0.1-0.5,0.3-0.7,0.6c-2.7,5.7-6.1,11.1-7.7,17.3c0,0-0.1,0-0.1,0.1
		c0-4.5,0.1-9,1.1-13.5c0.4-2,1.2-3.8,2.2-5.6c0.3-0.4,0.2-0.7,0-1.1c-0.8-1.4-2-2.4-3.4-2.9c-2.9-1.1-5.9-1.6-8.9-2
		c-0.5-0.1-1.1-0.1-1.8-0.2c1.3-0.7,2.4-1.4,3.3-2.2c2-1.6,3.4-3.7,4.4-6c1.3-3.2,1.9-6.5,1.2-9.9c-0.8-4-3.3-6.7-6.7-8.7
		c-0.2-0.1-0.4-0.2-0.6-0.3c0,0,0,0-0.1-0.1c0.6-0.6,1.4-0.9,2.1-1.4c6.2-3.5,12.5-6.9,19-10c9.6-4.7,19.4-9,29.6-12.2
		c4.5-1.4,9.2-2.6,13.9-3.2c0.8-0.1,1.7-0.1,2.5-0.2c1.3-0.2,2.7,0,4-0.1c3.3,0,6.3,0.6,8.8,2.9c2.8,2.5,4.6,5.7,4.8,9.6
		c0,0.3-0.1,0.6,0.1,0.9c0,0.9,0,1.7,0,2.6C333.8,205.4,334.1,205.8,333.9,206.1z"/>
	<path class="st11" d="M128.8,189.2c4.2,0.3,8.2,1.1,12.2,2.2c5.8,1.6,11.5,3.6,17,5.9c8.3,3.3,16.3,7.2,24.3,11.3
		c4.4,2.3,8.8,4.7,13.2,7.2c0.5,0.3,0.6,0.5,0,0.8c-3.5,1.9-6,4.8-6.9,8.8c-0.7,3.3-0.1,6.5,1.1,9.6c1.5,3.8,4.1,6.6,7.8,8.5
		c-1.8,0.3-3.6,0.5-5.3,0.8c-2.2,0.4-4.5,0.8-6.5,2c-0.5,0.3-1,0.6-1.4,1.1c-1.2,1.2-1.3,1.6-0.5,3.1c1.4,2.8,2.1,5.8,2.4,8.8
		c0.3,2.9,0.5,5.7,0.5,8.6c0,0.3,0,0.6,0,0.9c-0.4-0.1-0.3-0.3-0.4-0.5c-1.2-4.2-3-8.1-5.1-11.9c-0.9-1.6-1.6-3.2-2.4-4.8
		c-0.2-0.4-0.5-0.6-1-0.8c-3.7-0.8-6.8,0.1-9.6,2.6c-0.4,0.4-0.5,0.7-0.3,1.3c2.6,6.3,4.6,12.7,5.8,19.3c0.6,3.4,1,6.8,1.3,10.2
		c0.1,0.8,0.2,1.6,0,2.5c-0.3-1-0.7-2-1-3c-2.1-6.8-4.5-13.6-7.2-20.2c-1-2.6-2.2-5.1-3.2-7.6c-0.2-0.4-0.4-0.6-0.9-0.7
		c-2-0.4-4-0.4-6,0.1c-1.2,0.3-1.6,1.2-2,2.2c-0.3,0.8-0.2,1.6,0.2,2.4c3.9,8,6.7,16.3,8.4,25c0.9,4.5,1.7,8.9,2.3,13.5
		c0.1,0.2,0.1,0.4-0.2,0.4c-1.1-3.8-2.3-7.7-3.7-11.4c-2.5-6.9-5.5-13.6-9.3-19.9c-2.1-3.5-4.4-6.9-6.5-10.3c-1.3-2.1-1-4.1,0.7-5.9
		c1.6-1.7,3.6-2.7,5.6-3.7c1.7-0.8,3.4-1.5,5.1-2.2c0.4-0.2,0.6-0.5,0.7-0.9c0.1-0.6,0.3-1.2,0.4-1.9c0.1-1.5,1.1-2.1,2.3-2.7
		c4.9-2.2,9.8-4.6,14.5-7.2c1.4-0.8,2.3-1.9,2.6-3.5c0.1-0.6,0.1-0.9-0.6-0.9c-2.6,0.1-5.2,0-7.8-0.2c-4.5-0.2-9-0.4-13.5-0.8
		c-4.2-0.4-8.4-0.8-12.6-1.5c-7.1-1.1-14.1-2.4-20.7-5.2c-2.8-1.2-5.5-2.6-7.7-4.9c-1.9-1.9-2.7-4.2-3.3-6.7c-0.2-0.7-0.3-1.4-0.4-2
		c-0.2-0.6-0.2-1.3-0.3-1.9c0-0.9,0-1.7,0-2.6c0.2-0.3,0-0.7,0.1-1.1c0.3-3.3,1.6-6.1,3.8-8.5c2.6-2.8,6-3.8,9.7-3.8
		C126.1,189.1,127.4,189,128.8,189.2z"/>
	<path class="st12" d="M124.6,189.2c0-0.1,0-0.1,0-0.2c1.4,0,2.8,0,4.2,0c0,0.1,0,0.1,0,0.2C127.4,189.2,126,189.2,124.6,189.2z"/>
	<path class="st13" d="M320.6,189c0,0.1,0,0.1,0,0.2c-1.4,0-2.8,0-4.2,0c0-0.1,0-0.1,0-0.2C317.8,189,319.2,189,320.6,189z"/>
	<path class="st14" d="M111.1,205.1c0.2,0.6,0.4,1.3,0.3,1.9c-0.1-0.2-0.2-0.5-0.3-0.7C111.1,205.9,111.1,205.5,111.1,205.1z"/>
	<path class="st15" d="M111.1,201.4c0.1,0,0.1,0,0.2,0c0,0.4,0.1,0.7-0.2,1C111.1,202.1,111.1,201.8,111.1,201.4z"/>
	<path class="st16" d="M333.9,206.1c0-0.4-0.1-0.7,0.2-1.1c0,0.3,0,0.7,0,1C334,206.1,333.9,206.1,333.9,206.1z"/>
	<path class="st14" d="M333.9,201.6c0.1,0,0.1,0,0.2,0c0,0.3,0,0.6,0,0.9C333.8,202.2,333.9,201.9,333.9,201.6z"/>
	<path class="st5" d="M222,326.1c-9.9,0-19.7-0.2-29.6-0.7c-7.5-0.4-15-0.9-22.5-2.1c-2.4-0.4-4.9-0.8-7.2-1.7
		c-0.7-0.3-1.6-0.5-1.6-1.3c0-0.9,0.9-1.1,1.6-1.4c2.7-1.1,5.6-1.5,8.5-1.9c10.4-1.4,20.8-1.9,31.3-2.3c11.9-0.4,23.8-0.4,35.7-0.1
		c9.2,0.2,18.3,0.7,27.4,1.6c4.7,0.5,9.5,1,14.1,2.2c0.8,0.2,1.7,0.5,2.4,1c0.8,0.6,0.8,1.1,0,1.7c-1.4,0.9-3,1.2-4.5,1.5
		c-4.6,1-9.2,1.5-13.8,1.9C249.9,325.7,236,326.1,222,326.1z"/>
	<path class="st11" d="M222.6,236.7c-0.7,1-1.2,2-2,2.9c-3.3,3.9-7.6,5.5-12.6,4.7c-7.9-1.2-12.7-6.1-15-13.5
		c-1.1-3.7,0.4-8.8,4.6-11.2c1.3-0.8,2.7-1.3,4.2-1.6c0.4-0.1,0.7-0.1,0.9,0.3c1.5,3.2,4.3,4.9,7.4,6.2c2.1,0.9,4.4,1.4,6.7,0.9
		c0.7-0.1,1.4-0.4,1.9-0.9c0.3-0.3,0.5-0.3,0.8,0.1c0.9,1.2,1.7,2.4,2.5,3.7c0.3,0.6,0.5,0.8,0.9,0c0.7-1.3,1.6-2.6,2.5-3.8
		c0.2-0.2,0.3-0.5,0.6-0.2c1.3,1.2,3,1.3,4.6,1.1c3.8-0.4,7.1-2,9.9-4.7c0.7-0.7,1.3-1.5,1.7-2.4c0.1-0.4,0.3-0.6,0.8-0.5
		c2.8,0.6,5.5,1.7,7.2,4.2c2.2,3.1,2.8,6.5,1.5,10.1c-2,5.4-5.7,9.3-11.1,11.3c-4.5,1.6-9,1.4-13.1-1.3c-2-1.3-3.5-3-4.6-5.1
		C222.8,237.1,222.8,236.9,222.6,236.7z"/>
	<path class="st11" d="M222.2,292.9c-0.2-2.5-0.7-5-1.1-7.5c-0.7-4.4-1.5-8.8-2.2-13.2c-0.5-3.3-1.1-6.6-1.6-9.9
		c-0.7-4.3-1.4-8.6-2.1-12.9c-0.1-0.5,0.3-0.6,0.6-0.7c2-0.8,3.9-1.8,5.3-3.5c0.4-0.5,0.8-0.9,1.1-1.5c0.4-0.5,0.7-0.5,1,0
		c1.5,2.4,3.7,4,6.3,4.9c0.6,0.2,0.7,0.5,0.6,1.1c-1,5.9-2,11.8-2.9,17.8c-0.8,5-1.7,9.9-2.5,14.9c-0.6,3.5-1.1,7-1.7,10.6
		C222.6,293.4,222.4,293.2,222.2,292.9z"/>
	<path class="st1" d="M240.9,194.9c-2,3.3-4,6.7-5.7,10.2c-1.2,2.5-2.2,5-3,7.6c-0.2,0.6-0.3,0.9-1,0.4c-1.2-0.7-1.2-0.7-0.8-2
		c1.3-4.4,3.9-8.2,6.6-11.9c1.2-1.6,2.4-3.1,3.6-4.6C240.9,194.7,241,194.8,240.9,194.9z"/>
	<path class="st1" d="M204.6,194.9c3.1,3.9,6.3,7.7,8.5,12.2c0.8,1.5,1.4,3.1,1.8,4.8c0.1,0.5,0,0.7-0.4,0.9
		c-1.3,0.7-1.3,0.7-1.7-0.7c-1.7-5.5-4.4-10.4-7.3-15.3c-0.4-0.6-0.7-1.2-1-1.8C204.3,194.9,204.4,194.9,204.6,194.9z"/>
	<path class="st17" d="M279.5,297.6c0,0.2-0.1,0.5,0.2,0.7c-0.1,0.5-0.2,0.9-0.3,1.4c-0.1,0.1-0.1,0.1-0.2,0
		C279.2,299,279.3,298.3,279.5,297.6z"/>
	<path class="st18" d="M222.2,292.9c0.2,0.1,0.4,0.2,0.7,0.2c0,0.3,0.2,0.7-0.3,0.7C222.1,293.7,222.3,293.3,222.2,292.9z"/>
	<path class="st16" d="M165.6,298.7c0.1-0.1,0.2-0.2,0.2-0.4c0.3,0.5,0.1,1.2,0.3,1.7C165.7,299.7,165.7,299.2,165.6,298.7z"/>
	<path class="st19" d="M240.9,194.9c-0.1-0.1-0.1-0.1-0.2-0.2c0.1-0.3,0.3-0.4,0.7-0.8C241.3,194.5,241.1,194.7,240.9,194.9z"/>
	<path class="st20" d="M204.6,194.9c-0.1,0.1-0.1,0.1-0.2,0.2c-0.2-0.2-0.3-0.5-0.5-0.7C204.3,194.5,204.4,194.7,204.6,194.9z"/>
	<path class="st21" d="M279.2,299.8c0.1,0,0.1,0,0.2,0c0,0.2,0,0.5-0.2,0.6C278.9,300.1,279,299.9,279.2,299.8z"/>
</g>
</svg>
