<?xml version="1.0" encoding="utf-8"?>
<!-- Generator: Adobe Illustrator 22.0.0, SVG Export Plug-In . SVG Version: 6.00 Build 0)  -->
<svg version="1.1" id="Слой_1" xmlns="http://www.w3.org/2000/svg" xmlns:xlink="http://www.w3.org/1999/xlink" x="0px" y="0px"
	 viewBox="0 0 612 376.7" style="enable-background:new 0 0 612 376.7;" xml:space="preserve">
<style type="text/css">
	.st0{fill:#A2F6BE;}
	.st1{fill:#D6FBE2;}
	.st2{fill:#DAFBE5;}
	.st3{fill:#CCFADC;}
	.st4{fill:#DBFBE6;}
	.st5{fill:#C0F9D3;}
	.st6{fill:#435055;}
	.st7{fill:#A3F6BE;}
	.st8{fill:#B8F8CD;}
	.st9{fill:#DEFBE8;}
	.st10{fill:#C6F9D7;}
	.st11{fill:#BDF8D1;}
	.st12{fill:#DFFBE8;}
</style>
<path class="st0" d="M611.5,47.2c-1.6,11.5-4.4,22.4-14.4,29.9c-6.4,4.8-13.3,8.4-20.8,11.2c-14.7,5.6-29.9,8.9-45.3,11.6
	c-11.3,2-22.7,3.3-34,4.6c-6.3,0.7-12.7,1.1-19,1.5c-16,1.1-32,2-48,1.9c-1.4,0-1.8,0.6-1.7,1.9c0.3,3.6,1.9,6.4,4.7,8.5
	c1.3,1,2.8,1.9,4.3,2.6c13.5,7,27.2,13.8,41,20.3c1.5,0.7,2.3,1.7,2.7,3.3c0.5,2.5,1.3,4.9,1.8,7.4c0.3,1.7,1.2,2.5,2.8,3.1
	c8.3,3.2,16.6,6.6,24.1,11.7c2.5,1.7,4.5,3.9,6.4,6.1c3.5,4.3,3.1,8.8,0.6,13.3c-1.9,3.3-4,6.5-6.1,9.7c-9,13.7-17.5,27.6-24.7,42.4
	c-9.1,18.8-15.8,38.5-21.8,58.4c-0.3,1.1-0.7,2.3-1,3.4c-1.2-0.4-0.6-1.2-0.5-1.9c0.6-6.7,1.8-13.2,3-19.8
	c2.3-12.7,4.9-25.3,8.5-37.8c3.7-12.9,8.3-25.5,13.7-37.8c1.4-3.1,2.7-6.1,4.1-9.2c2.5-5.3-1.3-11.9-7-12.5c-4.5-0.4-8.9-0.7-13.4,0
	c-1.8,0.3-3.1,0.9-3.9,2.8c-10.5,23.5-19.5,47.5-27.4,72c-1.4,4.3-2.7,8.6-4.4,12.9c0.4-4.5,0.6-9,1.1-13.5
	c1.1-9.3,2.3-18.6,4.2-27.8c3.3-16.1,8.4-31.6,14.6-46.7c0.8-1.9,0.6-3-0.8-4.4c-7.6-7.3-16.5-9.2-26.5-6.9c-1,0.2-1.5,0.7-1.9,1.6
	c-7.4,15.6-16.7,30.4-21,47.4c0,0.1-0.2,0.1-0.4,0.2c-0.1-12.4,0.2-24.8,2.9-37c1.2-5.4,3.2-10.5,6-15.3c0.7-1.2,0.6-2,0-3.1
	c-2.1-3.9-5.4-6.5-9.4-8.1c-7.9-3-16.1-4.3-24.4-5.4c-1.5-0.2-2.9-0.4-5-0.7c3.6-2,6.5-3.8,9.2-6c5.4-4.5,9.3-10.1,12-16.5
	c3.7-8.7,5.3-17.8,3.4-27.1c-2.2-10.9-9-18.5-18.4-23.9c-0.6-0.3-1.1-0.6-1.7-0.9c-0.1,0-0.1-0.1-0.3-0.3c1.6-1.7,3.9-2.6,5.9-3.7
	c17.1-9.7,34.4-18.9,52.1-27.5c26.4-12.8,53.3-24.7,81.4-33.5c12.5-3.9,25.2-7,38.1-8.8c2.3-0.3,4.6-0.4,6.9-0.6
	c3.6-0.5,7.3-0.1,10.9-0.2c9,0,17.4,1.7,24.3,7.9c7.7,7,12.5,15.6,13,26.3c0.1,0.8-0.3,1.7,0.2,2.5c0,2.4,0,4.8,0,7.2
	C611.4,45.1,612.1,46.3,611.5,47.2z"/>
<path class="st0" d="M48.5,0.6C59.9,1.3,71,3.6,82,6.6c16,4.3,31.5,9.9,46.8,16.1c22.8,9.2,44.8,19.8,66.6,31
	c12.2,6.3,24.2,12.9,36.2,19.7c1.5,0.8,1.7,1.3,0,2.3c-9.7,5.3-16.5,13.1-18.8,24.1c-1.9,9-0.3,17.8,3,26.2
	c4.1,10.5,11.2,18.2,21.5,23.4c-5,0.8-9.8,1.3-14.5,2.3c-6.2,1.2-12.4,2.2-18,5.5c-1.4,0.8-2.7,1.8-3.8,2.9
	c-3.4,3.4-3.5,4.5-1.4,8.6c3.9,7.6,5.8,15.8,6.7,24.3c0.8,7.9,1.3,15.7,1.4,23.6c0,0.8,0,1.5,0,2.3c-1-0.2-0.8-0.9-1-1.4
	c-3.4-11.5-8.2-22.3-14-32.8c-2.4-4.3-4.5-8.7-6.6-13c-0.6-1.2-1.3-1.8-2.6-2.1c-10.1-2.3-18.8,0.2-26.2,7.2c-1.2,1.1-1.3,2-0.7,3.5
	c7,17.2,12.7,34.7,15.9,53c1.6,9.2,2.9,18.6,3.6,27.9c0.2,2.2,0.5,4.4,0,6.8c-0.9-2.8-1.9-5.5-2.8-8.3
	c-5.9-18.7-12.4-37.2-19.9-55.4c-2.9-7-6-13.9-8.9-20.9c-0.5-1.2-1.2-1.7-2.4-1.9c-5.6-1.1-11.1-1-16.6,0.2
	c-3.2,0.7-4.5,3.3-5.4,6.1c-0.7,2.3-0.5,4.3,0.6,6.6c10.6,21.9,18.3,44.8,23.2,68.7c2.5,12.2,4.8,24.5,6.3,36.9c0.2,0.5,0.4,1-0.5,1
	c-3.1-10.6-6.3-21.1-10-31.4c-6.8-19-15.1-37.2-25.6-54.5c-5.8-9.6-12-18.9-17.9-28.3c-3.6-5.8-2.8-11.3,1.8-16.1
	c4.4-4.6,9.8-7.5,15.5-10.2c4.6-2.2,9.3-4.2,14.1-6c1.2-0.4,1.7-1.3,1.9-2.5c0.4-1.7,0.9-3.4,1.1-5.1c0.4-4,2.9-5.8,6.3-7.4
	c13.5-6.1,26.8-12.8,39.9-19.8c3.9-2.1,6.3-5.3,7.1-9.7c0.3-1.6,0.2-2.4-1.8-2.4c-7.2,0.2-14.4-0.1-21.5-0.4
	c-12.3-0.5-24.7-1.2-37-2.3c-11.6-1-23.1-2.2-34.6-4c-19.4-3-38.6-6.7-56.8-14.4c-7.7-3.3-15.1-7.2-21.1-13.3
	C6,68.4,3.8,61.9,2,55.2c-0.5-1.8-0.7-3.7-1.1-5.6C0.5,47.8,0.3,46,0,44.3c0-2.4,0-4.8,0-7.2c0.5-0.9,0.1-1.9,0.2-2.9
	c0.7-9,4.5-16.8,10.5-23.3C17.9,3.1,27.2,0.3,37.5,0.4C41.2,0.5,44.8,0.1,48.5,0.6z"/>
<path class="st1" d="M36.9,0.6c0-0.2,0-0.3,0-0.5c3.8,0,7.7,0,11.5,0c0,0.2,0,0.3,0,0.5C44.6,0.6,40.8,0.6,36.9,0.6z"/>
<path class="st2" d="M575.1,0.1c0,0.2,0,0.3,0,0.5c-3.8,0-7.7,0-11.5,0c0-0.2,0-0.3,0-0.5C567.4,0.1,571.2,0.1,575.1,0.1z"/>
<path class="st3" d="M0,44.3c0.6,1.7,1,3.5,0.9,5.3c-0.3-0.6-0.6-1.3-0.9-1.9C0,46.5,0,45.4,0,44.3z"/>
<path class="st4" d="M0,34.2c0.2,0,0.3,0,0.5,0c-0.1,1,0.3,2-0.5,2.9C0,36.1,0,35.1,0,34.2z"/>
<path class="st5" d="M611.5,47.2c0.1-1-0.4-2.1,0.5-2.9c0,1,0,1.9,0,2.9C611.8,47.1,611.7,47.1,611.5,47.2z"/>
<path class="st3" d="M611.6,34.6c0.1,0,0.3,0,0.4,0c0,0.8,0,1.6,0,2.4C611.2,36.4,611.6,35.5,611.6,34.6z"/>
<path class="st6" d="M304.4,376.6c-27.1,0-54.2-0.6-81.2-2c-20.7-1.1-41.3-2.6-61.8-5.7c-6.7-1-13.4-2.1-19.7-4.7
	c-1.8-0.7-4.3-1.3-4.4-3.6c-0.1-2.5,2.5-3,4.4-3.8c7.5-2.9,15.4-4.1,23.3-5.2c28.5-3.9,57.2-5.3,86-6.3c32.7-1.1,65.3-1.2,98-0.3
	c25.2,0.7,50.3,1.8,75.4,4.3c13,1.3,26,2.7,38.7,6.2c2.3,0.6,4.6,1.4,6.6,2.7c2.3,1.5,2.3,3.1,0,4.6c-3.8,2.3-8.1,3.2-12.4,4.2
	c-12.5,2.7-25.2,4.1-37.9,5.2C381.1,375.6,342.8,376.6,304.4,376.6z"/>
<path class="st0" d="M306.1,131.1c-1.8,2.8-3.4,5.6-5.5,8c-9.1,10.7-20.8,15.1-34.6,13c-21.7-3.3-34.9-16.8-41.1-37
	c-3.1-10.1,1-24.2,12.6-30.8c3.7-2.1,7.5-3.5,11.5-4.5c1.1-0.3,2-0.4,2.6,0.9c4.1,8.9,11.8,13.6,20.4,17.1c5.9,2.4,12,3.8,18.4,2.5
	c2-0.4,3.9-1,5.3-2.5c0.9-1,1.4-0.8,2.2,0.3c2.5,3.2,4.8,6.6,6.7,10.2c0.8,1.5,1.5,2.1,2.6,0.1c2-3.7,4.3-7.1,6.9-10.3
	c0.5-0.6,0.8-1.2,1.6-0.4c3.6,3.4,8.1,3.6,12.6,3.1c10.5-1.2,19.6-5.5,27.1-12.9c2-1.9,3.5-4.2,4.6-6.7c0.4-1,0.9-1.7,2.1-1.4
	c7.8,1.8,15.1,4.7,19.9,11.4c6,8.4,7.7,17.9,4,27.7c-5.6,14.7-15.6,25.7-30.5,31.1c-12.4,4.5-24.6,4-36-3.5
	c-5.4-3.6-9.7-8.3-12.7-14C306.7,132.1,306.5,131.7,306.1,131.1z"/>
<path class="st0" d="M305,285.5c-0.5-6.9-2-13.7-3.1-20.5c-1.9-12.1-4-24.2-6-36.3c-1.5-9-3-18-4.5-27.1c-2-11.8-3.9-23.5-5.9-35.3
	c-0.2-1.4,0.7-1.6,1.6-1.9c5.6-2.1,10.7-5.1,14.6-9.7c1.1-1.3,2.1-2.6,3-4c1-1.5,1.8-1.4,2.7,0c4.1,6.7,10.1,11,17.4,13.5
	c1.7,0.6,1.9,1.5,1.6,3c-2.7,16.2-5.4,32.5-8.1,48.7c-2.3,13.7-4.7,27.3-6.9,40.9c-1.6,9.7-3,19.3-4.6,29
	C306.1,286.6,305.5,286.3,305,285.5z"/>
<path class="st7" d="M356.4,16.5c-5.5,9.2-10.9,18.4-15.6,28c-3.3,6.8-6,13.7-8.2,20.9c-0.5,1.7-0.8,2.4-2.8,1.2
	c-3.2-2-3.2-1.8-2.1-5.4c3.7-12.2,10.6-22.6,18.2-32.6c3.2-4.3,6.6-8.4,9.9-12.6C356.3,15.9,356.6,15.9,356.4,16.5z"/>
<path class="st7" d="M256.6,16.5c8.6,10.6,17.2,21.2,23.3,33.5c2.1,4.2,3.7,8.6,5.1,13.1c0.4,1.4,0,2-1.1,2.6
	c-3.5,1.9-3.5,1.9-4.7-1.8c-4.6-15-12.2-28.6-20.1-42c-1-1.6-1.9-3.3-2.9-5C255.9,16.4,256.1,16.3,256.6,16.5z"/>
<path class="st8" d="M462.3,298.4c0.1,0.7-0.2,1.4,0.5,1.9c-0.3,1.3-0.6,2.6-0.9,3.9c-0.2,0.2-0.3,0.2-0.5,0
	C461.4,302.2,461.7,300.3,462.3,298.4z"/>
<path class="st9" d="M305,285.5c0.6,0.4,1.2,0.6,1.9,0.4c-0.1,0.7,0.4,1.9-0.8,1.8C304.8,287.7,305.1,286.4,305,285.5z"/>
<path class="st5" d="M149.6,301.3c0.4-0.2,0.5-0.6,0.5-1c0.9,1.5,0.2,3.3,0.9,4.8C150,304.1,149.9,302.7,149.6,301.3z"/>
<path class="st10" d="M356.4,16.5c-0.2-0.2-0.3-0.3-0.5-0.5c0.3-0.8,0.9-1.2,1.9-2.1C357.5,15.2,357,15.9,356.4,16.5z"/>
<path class="st11" d="M256.6,16.5c-0.2,0.2-0.3,0.3-0.5,0.5c-0.5-0.6-0.9-1.3-1.4-1.9C255.7,15.1,256.2,15.7,256.6,16.5z"/>
<path class="st12" d="M461.4,304.2c0.2,0,0.3,0,0.5,0c0,0.6,0.1,1.3-0.7,1.6C460.7,305.2,460.8,304.7,461.4,304.2z"/>
</svg>
