<?xml version="1.0" encoding="utf-8"?>
<!-- Generator: Adobe Illustrator 22.0.0, SVG Export Plug-In . SVG Version: 6.00 Build 0)  -->
<svg version="1.1" id="Слой_1" xmlns="http://www.w3.org/2000/svg" xmlns:xlink="http://www.w3.org/1999/xlink" x="0px" y="0px"
	 viewBox="0 0 985.6 910.1" style="enable-background:new 0 0 985.6 910.1;" xml:space="preserve">
<style type="text/css">
	.st0{fill:#CCCCCC;}
</style>
<g>
	<g transform="translate(0.000000,475.000000) scale(0.100000,-0.100000)">
		<path class="st0" d="M838.6,4721.9c-252.7-40.2-541.7-243.1-683.3-480.4c-70.8-116.8-139.7-361.8-139.7-492
			c1.9-451.7,315.8-853.7,758-968.5c97.6-24.9,612.5-28.7,4142-28.7c4413.8,0,4126.7-7.7,4364.1,111
			c145.5,72.7,344.5,271.8,419.2,423c68.9,132.1,116.7,325.4,116.7,463.2c0,130.1-68.9,375.2-139.7,491.9
			c-145.5,245-430.7,440.2-702.5,482.4C8816.5,4746.8,989.9,4746.8,838.6,4721.9z"/>
		<path class="st0" d="M905.6,1180.9c-411.5-40.2-763.7-352.2-861.3-767.6C-70.5-78.6,231.9-599.2,720-750.4
			c120.6-38.3,187.6-38.3,4195.6-38.3c4008.1,0,4075,0,4195.6,38.3c359.8,111,633.6,434.5,689.1,815.4
			c26.8,187.6-5.7,394.3-91.9,574.2c-67,139.7-287.1,365.6-419.2,434.5c-245,122.5,84.2,112.9-4295.2,116.8
			C2808.2,1190.4,968.8,1186.6,905.6,1180.9z"/>
		<path class="st0" d="M756.3-2386.9c-168.4-45.9-306.3-128.3-436.4-256.5c-532.1-530.2-331.1-1393.5,386.7-1651.9l122.5-44
			l4000.4-5.7c2685.4-3.8,4044.4,1.9,4134.4,15.3c279.4,40.2,562.7,233.5,712,482.3c70.8,116.7,139.7,361.7,139.7,491.9
			c-1.9,446-317.7,855.6-748.4,968.5C8919.8-2346.7,899.9-2346.7,756.3-2386.9z"/>
	</g>
</g>
</svg>
